<svg version="1.0" xmlns="http://www.w3.org/2000/svg"
 width="100.000000pt" height="100.000000pt" viewBox="0 0 380.000000 380.000000"
 preserveAspectRatio="xMidYMid meet">

<g transform="translate(0.000000,380.000000) scale(0.100000,-0.100000)"
fill="#000000" stroke="none">
<path d="M2098 3753 c-28 -34 -47 -71 -67 -129 -11 -33 -22 -52 -25 -44 -2 8
-12 38 -21 66 -8 28 -23 60 -31 70 -15 18 -15 18 -9 -6 15 -62 33 -170 38
-225 l6 -60 -15 50 c-40 133 -78 195 -120 195 -15 0 -13 -5 9 -28 32 -33 59
-100 82 -198 8 -38 18 -78 21 -88 6 -18 -117 120 -143 160 -11 18 -12 18 -12
0 -1 -11 26 -59 59 -108 33 -48 58 -88 56 -88 -14 0 -138 95 -155 118 -11 15
-20 23 -21 17 0 -23 50 -89 99 -129 49 -41 141 -143 141 -157 0 -8 -223 57
-279 82 -24 11 -46 17 -48 15 -7 -7 61 -44 140 -75 166 -66 219 -107 263 -203
25 -55 29 -74 29 -158 0 -84 -4 -102 -28 -152 -33 -68 -88 -112 -166 -135 -50
-14 -61 -14 -140 2 -163 34 -212 28 -83 -10 28 -9 52 -18 52 -20 0 -3 -62 -4
-137 -3 -85 2 -145 -2 -156 -8 -15 -9 1 -12 75 -17 51 -4 104 -10 117 -14 24
-6 23 -7 -13 -20 -35 -11 -266 -142 -266 -149 0 -6 109 30 172 57 36 16 69 29
72 29 4 0 -17 -29 -45 -65 -28 -36 -47 -65 -41 -65 13 0 82 52 112 85 14 15
37 36 52 46 l26 19 -20 -53 c-11 -28 -36 -69 -56 -89 -19 -21 -33 -40 -30 -43
11 -11 100 79 123 125 13 26 31 50 40 53 16 7 21 -8 5 -18 -12 -7 -84 -135
-79 -140 2 -1 32 30 66 70 71 84 131 129 209 156 130 46 231 7 274 -106 34
-88 -2 -264 -74 -365 -41 -57 -37 -64 11 -18 28 27 33 29 33 12 0 -28 -42
-114 -76 -153 -21 -25 -23 -31 -9 -23 23 12 64 55 89 92 l16 25 -6 -35 c-3
-19 -19 -59 -35 -87 -16 -29 -29 -56 -29 -60 0 -17 64 56 81 92 l19 40 0 -40
c0 -22 -4 -56 -10 -74 -5 -19 -8 -36 -6 -39 8 -7 29 42 42 93 12 48 12 49 14
15 2 -19 2 -60 1 -90 l-1 -55 15 40 c19 48 22 109 11 198 l-8 68 55 -55 c31
-31 60 -56 66 -56 6 0 -10 34 -35 75 -59 98 -84 170 -84 245 0 107 46 160 137
160 83 0 147 -39 185 -114 12 -23 28 -95 40 -184 l21 -146 -26 -75 c-19 -53
-27 -94 -26 -136 l1 -60 8 46 c4 25 21 77 38 115 16 38 33 80 38 94 l7 25 8
-30 c5 -16 18 -91 29 -165 12 -74 24 -137 27 -140 3 -3 3 66 0 154 -5 155 -5
158 12 130 10 -16 44 -51 77 -79 69 -58 80 -71 116 -139 22 -42 27 -47 27 -26
2 62 -21 105 -99 185 -67 69 -120 145 -120 173 0 18 159 -69 184 -100 16 -20
26 -27 26 -18 0 24 -59 90 -109 122 l-46 29 42 -2 c55 -4 61 4 15 21 -152 54
-241 190 -230 349 6 83 35 142 90 181 49 36 153 70 212 70 55 0 135 -40 180
-91 43 -47 47 -29 7 32 -17 24 -28 45 -26 47 4 5 119 -53 158 -79 22 -16 16
-5 -23 34 -30 32 -51 57 -47 57 4 0 30 -11 57 -25 62 -31 151 -67 156 -62 2 2
-48 32 -111 67 -76 42 -111 66 -103 72 22 14 161 7 230 -11 49 -12 64 -14 57
-4 -18 21 -116 53 -187 59 l-68 7 48 45 c27 25 46 47 44 49 -2 2 -26 -11 -53
-30 -53 -39 -142 -77 -176 -77 -19 1 -16 7 25 44 25 23 77 61 115 84 38 23 83
56 99 74 l29 32 -35 -23 c-38 -24 -166 -91 -175 -91 -2 0 0 12 5 26 19 49 9
58 -15 13 -35 -68 -121 -142 -191 -165 -84 -27 -226 -27 -273 1 -104 61 -113
195 -26 372 78 158 183 241 288 229 29 -3 66 -2 82 2 26 8 20 10 -52 22 -46 7
-83 15 -83 18 0 3 15 22 33 41 l32 34 -37 -22 c-44 -26 -49 -16 -23 46 8 20
14 38 11 40 -5 6 -31 -37 -50 -86 -9 -24 -23 -52 -29 -61 -19 -26 -127 -111
-127 -100 0 26 64 133 125 211 66 83 139 211 133 231 -2 5 -16 -13 -32 -42
-23 -43 -85 -127 -127 -174 -4 -5 -6 27 -4 70 4 68 3 72 -5 32 -9 -51 -40
-151 -45 -146 -1 2 -17 38 -34 81 -20 52 -31 96 -31 130 0 37 -3 48 -10 37
-16 -24 -11 -103 8 -161 11 -30 22 -71 25 -93 l6 -39 -37 43 c-49 57 -61 79
-62 113 0 33 -15 36 -24 5 -5 -22 2 -39 67 -162 19 -35 19 -44 9 -95 -17 -81
-112 -267 -168 -329 -90 -101 -188 -123 -281 -66 -146 91 -182 252 -110 496
19 65 31 115 26 113 -14 -9 -69 -163 -84 -237 -9 -40 -17 -74 -19 -76 -11 -10
-26 111 -26 204 0 117 20 222 56 299 25 53 26 65 2 38z m512 -767 c-14 -39
-12 -161 4 -199 27 -67 111 -117 194 -117 34 0 33 0 -29 -42 -42 -28 -74 -60
-94 -92 -28 -46 -30 -56 -30 -145 l0 -96 -45 45 c-93 94 -243 94 -306 2 -24
-34 -34 -32 -34 7 0 14 -14 49 -30 78 -24 41 -40 57 -85 78 -47 23 -64 27
-117 23 -59 -4 -61 -4 -38 11 53 35 82 66 108 115 24 45 27 62 27 151 0 55 -4
118 -8 140 l-9 40 37 -43 c85 -98 223 -127 321 -67 27 17 69 56 94 87 25 31
46 55 48 54 1 -2 -2 -15 -8 -30z"/>
<path d="M2286 2698 c-24 -34 -20 -82 9 -117 54 -63 200 -88 250 -41 49 46 30
74 -97 139 -92 47 -139 53 -162 19z m161 -44 c45 -26 84 -53 87 -60 9 -23 -23
-44 -68 -44 -84 0 -176 70 -162 124 10 39 48 34 143 -20z"/>
<path d="M1002 2188 c-24 -27 -72 -125 -72 -150 0 -34 -18 -27 -24 10 -7 40
-44 128 -51 121 -2 -3 4 -47 14 -99 11 -52 21 -120 24 -150 6 -53 4 -51 -27
44 -23 70 -41 106 -60 123 -35 30 -65 32 -35 2 29 -29 54 -88 79 -189 11 -47
24 -94 27 -105 4 -14 -1 -11 -18 10 -12 17 -41 50 -63 75 -23 25 -51 59 -64
75 l-22 30 15 -40 c9 -22 39 -73 67 -114 28 -41 45 -70 37 -66 -64 40 -128 91
-146 117 -13 18 -23 26 -23 18 0 -27 37 -77 95 -126 54 -46 148 -154 141 -162
-5 -5 -245 67 -296 89 -34 14 -40 15 -25 3 28 -22 97 -56 192 -93 140 -56 209
-137 233 -272 20 -116 -10 -231 -78 -290 -81 -72 -160 -84 -312 -49 -47 11
-92 19 -100 19 -28 0 19 -27 71 -40 76 -20 38 -29 -86 -23 -79 4 -118 3 -140
-7 -28 -12 -21 -13 84 -20 117 -8 143 -15 101 -26 -39 -10 -295 -153 -274
-153 22 0 116 32 180 61 37 16 62 24 57 17 -5 -7 -25 -33 -45 -58 -19 -25 -38
-51 -43 -58 -14 -26 36 8 106 70 36 32 69 58 72 58 14 0 -26 -87 -59 -127 -19
-23 -32 -43 -28 -43 19 0 76 56 100 98 32 55 54 82 66 82 5 0 -4 -19 -20 -42
-36 -53 -65 -108 -59 -114 2 -2 30 27 62 65 86 103 155 148 264 172 96 20 195
-36 220 -126 28 -102 1 -248 -65 -346 -19 -29 -38 -57 -41 -63 -10 -16 28 14
56 43 l23 26 -6 -35 c-9 -47 -41 -108 -79 -149 l-32 -33 31 16 c18 8 46 34 63
58 27 37 31 39 31 18 0 -13 -16 -52 -35 -87 -34 -61 -34 -63 -10 -47 31 20 64
65 75 102 8 25 8 24 9 -13 1 -22 -3 -56 -9 -74 -5 -19 -8 -36 -6 -39 7 -6 28
39 42 88 l12 45 2 -85 1 -85 16 40 c11 31 13 65 9 149 l-6 109 34 -39 c19 -21
48 -47 65 -57 l31 -18 -47 78 c-60 102 -85 174 -86 248 -1 93 36 147 111 161
78 15 185 -48 217 -128 9 -23 25 -103 36 -177 l20 -136 -25 -75 c-32 -97 -39
-142 -27 -171 9 -22 10 -22 11 11 0 19 12 62 26 95 14 33 31 77 37 98 6 20 14
37 18 37 7 0 19 -61 44 -224 8 -54 17 -101 20 -104 8 -8 5 172 -4 251 -4 37
-6 67 -5 67 1 0 12 -16 24 -35 11 -19 49 -57 84 -84 47 -38 72 -68 99 -118 39
-73 48 -63 21 26 -12 42 -29 66 -88 124 -89 87 -154 201 -93 163 12 -7 43 -22
70 -31 28 -11 62 -34 83 -58 29 -31 35 -35 29 -16 -12 36 -35 63 -89 103 l-49
36 49 0 49 1 -72 30 c-134 57 -203 155 -211 301 -6 98 13 152 70 203 57 52
120 77 205 83 85 5 138 -15 202 -80 49 -48 52 -39 11 26 -30 46 -30 47 -8 41
13 -4 52 -23 88 -44 91 -51 93 -50 25 13 l-60 55 100 -43 c154 -68 162 -64 27
12 -68 38 -120 72 -115 75 5 3 31 9 59 12 44 6 95 -1 219 -30 28 -7 29 -6 10
7 -40 29 -112 50 -186 55 l-77 6 40 31 c23 17 48 41 56 54 12 18 5 16 -39 -14
-64 -43 -119 -68 -174 -78 l-40 -8 25 27 c14 15 76 61 138 102 62 41 117 84
123 95 10 18 7 18 -22 -5 -19 -13 -67 -41 -107 -61 -67 -34 -73 -35 -68 -17 3
12 9 31 12 44 4 12 -12 -5 -34 -38 -51 -76 -74 -97 -142 -132 -51 -26 -63 -28
-177 -28 -136 0 -158 9 -198 76 -57 97 12 328 138 457 62 64 108 82 205 82 44
0 84 5 87 10 4 6 -11 10 -37 10 -24 0 -60 5 -81 11 l-37 10 27 37 c27 34 18
36 -20 4 -26 -23 -27 -13 -8 45 25 73 5 55 -34 -32 -27 -58 -44 -80 -92 -118
-32 -26 -59 -43 -61 -38 -6 17 50 116 103 182 64 79 117 161 139 213 26 63 18
64 -19 2 -43 -72 -97 -145 -124 -170 -20 -18 -20 -18 -11 15 6 19 10 54 9 79
l-1 45 -12 -55 c-17 -75 -37 -133 -44 -126 -21 22 -62 154 -62 204 0 41 -3 53
-10 42 -16 -25 -11 -111 10 -178 11 -35 20 -75 20 -89 0 -23 -3 -21 -40 23
-23 27 -46 68 -53 91 -7 27 -14 38 -19 30 -15 -24 -8 -54 28 -113 51 -84 57
-108 39 -176 -18 -72 -95 -227 -146 -295 -51 -68 -126 -113 -190 -113 -66 0
-144 43 -191 105 -75 100 -85 222 -32 400 37 127 38 132 27 120 -18 -18 -64
-145 -82 -229 l-18 -81 -13 60 c-30 140 -9 347 46 458 27 53 27 57 -4 25z"/>
</g>
</svg>
